# xmcd CD database file
#
# Track frame offsets:
#	150
#	18708
#	36523
#	57605
#	72788
#	89131
#	111309
#	128258
#	140166
#	163220
#	181666
#	198741
#	217151
#	225435
#	245263
#	256637
#	281787
#	302002
#
# Disc length: 4376 seconds
#
# Revision: 1
# Processed by: cddbd v1.5.2PL0 Copyright (c) Steve Scherf et al.
# Submitted via: CDex 1.51
#
DISCID=13111612
DTITLE=Tom Shaka - Blues Magic
DYEAR=1997
DGENRE=Blues
TTITLE0=Blues Magic
TTITLE1=From Four ´Til Late
TTITLE2=Crosscut Saw
TTITLE3=Throw A Boogie Woogie
TTITLE4=M and O Blues
TTITLE5=I Want You To Love Me
TTITLE6=Mardi Gras Mambo
TTITLE7=Night Harps
TTITLE8=Blues Rebel
TTITLE9=Palet On Your Floor
TTITLE10=Where Can You Be
TTITLE11=If You´re Lonley
TTITLE12=Rag It
TTITLE13=Boppin´ The Blues
TTITLE14=Grinnin´ In Your Face
TTITLE15=Sadie
TTITLE16=Steady Rollin´ Man
TTITLE17=I Shall Not Be Moved
EXTD=YEAR: 1997
EXTT0=
EXTT1=
EXTT2=
EXTT3=
EXTT4=
EXTT5=
EXTT6=
EXTT7=
EXTT8=
EXTT9=
EXTT10=
EXTT11=
EXTT12=
EXTT13=
EXTT14=
EXTT15=
EXTT16=
EXTT17=
PLAYORDER=
